<svg width="39" height="43" viewBox="0 0 39 43" fill="none" xmlns="http://www.w3.org/2000/svg">
<path d="M0.230469 4.86414C0.230469 2.63295 2.0392 0.824219 4.27039 0.824219H28.5099C30.7411 0.824219 32.5499 2.63295 32.5499 4.86414V35.8369C32.5499 38.0681 30.7411 39.8768 28.5099 39.8768H4.27039C2.0392 39.8768 0.230469 38.0681 0.230469 35.8369V4.86414Z" fill="url(#paint0_linear_14677_39748)"/>
<path d="M0.230469 4.79481C0.230469 2.60191 2.00816 0.824219 4.20106 0.824219H4.27039V39.8768H4.20106C2.00816 39.8768 0.230469 38.0991 0.230469 35.9062V4.79481Z" fill="url(#paint1_linear_14677_39748)"/>
<path d="M32.5469 35.9059C32.5469 38.0988 30.7692 39.8765 28.5763 39.8765L28.5069 39.8765L28.507 0.823871L28.5763 0.823871C30.7692 0.823871 32.5469 2.60157 32.5469 4.79446L32.5469 35.9059Z" fill="url(#paint2_linear_14677_39748)"/>
<path d="M27.4991 7.55811H5.27951C4.72172 7.55811 4.26953 8.01029 4.26953 8.56809C4.26953 9.12588 4.72171 9.57807 5.27951 9.57807H27.4991C28.0569 9.57807 28.5091 9.12588 28.5091 8.56809C28.5091 8.01029 28.0569 7.55811 27.4991 7.55811Z" fill="white" fill-opacity="0.4"/>
<path d="M27.4991 12.9453H5.27951C4.72172 12.9453 4.26953 13.3975 4.26953 13.9553C4.26953 14.5131 4.72171 14.9653 5.27951 14.9653H27.4991C28.0569 14.9653 28.5091 14.5131 28.5091 13.9553C28.5091 13.3975 28.0569 12.9453 27.4991 12.9453Z" fill="white" fill-opacity="0.4"/>
<path d="M14.0327 18.3325H5.27951C4.72172 18.3325 4.26953 18.7847 4.26953 19.3425C4.26953 19.9003 4.72171 20.3525 5.27951 20.3525H14.0327C14.5905 20.3525 15.0427 19.9003 15.0427 19.3425C15.0427 18.7847 14.5905 18.3325 14.0327 18.3325Z" fill="white" fill-opacity="0.4"/>
<g filter="url(#filter0_d_14677_39748)">
<path fill-rule="evenodd" clip-rule="evenodd" d="M6.55324 25.2537C7.11142 24.7319 7.86157 24.4921 8.75312 24.698C8.77736 24.7036 8.80103 24.7114 8.82383 24.7214C9.65956 25.0861 10.1896 25.6327 10.363 26.3593C10.5304 27.0607 10.3422 27.8405 9.9566 28.6366C9.51653 29.5452 8.78071 30.5526 7.84594 31.6191C8.2673 31.7782 8.74635 31.8093 9.18181 31.687C9.85858 31.4969 10.4044 30.9442 10.5673 30.3107C10.618 30.1134 10.8077 29.9848 11.0097 30.0106C11.2118 30.0364 11.363 30.2086 11.3626 30.4123C11.3618 30.7213 11.3696 30.9335 11.4507 31.1075L11.4507 31.1075C11.5394 31.2978 11.6726 31.3412 11.7549 31.3357C11.83 31.3308 11.9481 31.2796 12.0033 31.0722L12.0033 31.0721C12.0504 30.8953 12.0247 30.6931 11.976 30.3987C11.9451 30.2123 12.0475 30.0295 12.2224 29.9584C12.3974 29.8873 12.5983 29.9469 12.7061 30.1019C12.8316 30.2821 12.9716 30.4768 13.1381 30.6119C13.2949 30.739 13.4275 30.7769 13.5705 30.7375L13.5705 30.7375C13.6067 30.7276 13.6458 30.6996 13.6692 30.6652C13.6788 30.651 13.6821 30.6418 13.6832 30.6372C13.6248 30.4421 13.7208 30.2336 13.9079 30.1515C14.0969 30.0686 14.3181 30.1415 14.4207 30.3206C14.6831 30.7784 15.1154 31.1538 15.627 31.3613C15.8338 31.4452 15.9334 31.6808 15.8495 31.8875C15.7657 32.0943 15.5301 32.1939 15.3233 32.1101C14.8822 31.9312 14.4836 31.6573 14.1612 31.3156C14.0538 31.4073 13.9254 31.4779 13.7848 31.5166C13.3784 31.6284 13.0319 31.5142 12.7667 31.3401C12.6183 31.8122 12.2462 32.1129 11.8083 32.1419C11.4028 32.1688 11.0158 31.9574 10.7866 31.577C10.4267 31.9957 9.94139 32.3129 9.4003 32.4649C8.69878 32.6619 7.92304 32.5762 7.27631 32.2503C6.71496 32.8558 6.09786 33.4772 5.4417 34.1076C5.2808 34.2621 5.02506 34.257 4.87048 34.0961C4.7159 33.9352 4.72102 33.6795 4.88192 33.5249C5.50541 32.9259 6.08491 32.3428 6.60946 31.7807C6.06482 31.2599 5.72008 30.529 5.5442 29.7607C5.36092 28.9602 5.35299 28.0866 5.51469 27.2937C5.67544 26.5055 6.01205 25.7596 6.55324 25.2537ZM7.15343 31.1828C8.09662 30.1172 8.81575 29.1385 9.22942 28.2844C9.58028 27.5601 9.68167 26.985 9.5771 26.5468C9.48022 26.1409 9.18539 25.7693 8.53531 25.4772C7.92477 25.3466 7.46059 25.5115 7.10501 25.8439C6.72545 26.1987 6.44617 26.7697 6.30638 27.4552C6.16754 28.136 6.17442 28.893 6.33181 29.5804C6.48228 30.2377 6.76312 30.8023 7.15343 31.1828ZM13.6835 30.6337C13.6836 30.6337 13.6837 30.6344 13.6834 30.6357C13.6834 30.6344 13.6835 30.6337 13.6835 30.6337Z" fill="#F0C735"/>
</g>
<g clip-path="url(#clip0_14677_39748)">
<path d="M28.7233 42.7353C34.2056 42.7353 38.6498 38.291 38.6498 32.8088C38.6498 27.3266 34.2056 22.8823 28.7233 22.8823C23.2411 22.8823 18.7969 27.3266 18.7969 32.8088C18.7969 38.291 23.2411 42.7353 28.7233 42.7353Z" fill="url(#paint3_linear_14677_39748)"/>
<path d="M28.7202 22.8823C28.3472 22.8823 27.9794 22.9036 27.6172 22.9437C32.5803 23.4924 36.4407 27.6994 36.4407 32.8088C36.4407 37.9182 32.5803 42.1252 27.6172 42.6739C27.9794 42.714 28.3472 42.7353 28.7202 42.7353C34.2024 42.7353 38.6466 38.291 38.6466 32.8088C38.6466 27.3266 34.2024 22.8823 28.7202 22.8823Z" fill="url(#paint4_linear_14677_39748)"/>
<path d="M28.7206 40.5286C32.9845 40.5286 36.4412 37.0719 36.4412 32.808C36.4412 28.544 32.9845 25.0874 28.7206 25.0874C24.4566 25.0874 21 28.544 21 32.808C21 37.0719 24.4566 40.5286 28.7206 40.5286Z" fill="#C20910"/>
<path d="M28.7202 25.0874C28.3456 25.0874 27.9775 25.1147 27.6172 25.1662C31.3586 25.7014 34.2348 28.9186 34.2348 32.808C34.2348 36.6974 31.3586 39.9146 27.6172 40.4498C27.9774 40.5014 28.3456 40.5286 28.7201 40.5286C32.9841 40.5286 36.4407 37.0719 36.4407 32.808C36.4407 28.544 32.9841 25.0874 28.7202 25.0874Z" fill="#B40007"/>
<rect x="27.7734" y="28.1973" width="2.0138" height="7.09034" rx="1.0069" fill="#F9D38F"/>
<circle cx="28.7237" cy="37.0596" r="1.06355" fill="#F9D38F"/>
</g>
<defs>
<filter id="filter0_d_14677_39748" x="4.36075" y="24.2275" width="11.9152" height="10.3898" filterUnits="userSpaceOnUse" color-interpolation-filters="sRGB">
<feFlood flood-opacity="0" result="BackgroundImageFix"/>
<feColorMatrix in="SourceAlpha" type="matrix" values="0 0 0 0 0 0 0 0 0 0 0 0 0 0 0 0 0 0 127 0" result="hardAlpha"/>
<feOffset/>
<feGaussianBlur stdDeviation="0.198529"/>
<feComposite in2="hardAlpha" operator="out"/>
<feColorMatrix type="matrix" values="0 0 0 0 0 0 0 0 0 0 0 0 0 0 0 0 0 0 0.3 0"/>
<feBlend mode="normal" in2="BackgroundImageFix" result="effect1_dropShadow_14677_39748"/>
<feBlend mode="normal" in="SourceGraphic" in2="effect1_dropShadow_14677_39748" result="shape"/>
</filter>
<linearGradient id="paint0_linear_14677_39748" x1="10.3408" y1="-5.79343" x2="34.811" y2="-6.52806" gradientUnits="userSpaceOnUse">
<stop stop-color="#2B9FFF"/>
<stop offset="0.957351" stop-color="#0657CB"/>
</linearGradient>
<linearGradient id="paint1_linear_14677_39748" x1="-1.24012" y1="11.1183" x2="4.64223" y2="11.1183" gradientUnits="userSpaceOnUse">
<stop offset="0.196341" stop-color="#5EB6FF"/>
<stop offset="0.994489" stop-color="#2BA0FF"/>
</linearGradient>
<linearGradient id="paint2_linear_14677_39748" x1="32.5804" y1="20.6768" x2="28.1687" y2="20.6768" gradientUnits="userSpaceOnUse">
<stop stop-color="#0455C9"/>
<stop offset="1" stop-color="#1E6FE4"/>
</linearGradient>
<linearGradient id="paint3_linear_14677_39748" x1="20.4064" y1="23.8195" x2="35.2385" y2="40.7852" gradientUnits="userSpaceOnUse">
<stop stop-color="#FEDCA9"/>
<stop offset="1" stop-color="#DDA003"/>
</linearGradient>
<linearGradient id="paint4_linear_14677_39748" x1="28.5114" y1="23.8195" x2="42.061" y2="32.43" gradientUnits="userSpaceOnUse">
<stop stop-color="#FEDCA9"/>
<stop offset="1" stop-color="#DDA003"/>
</linearGradient>
<clipPath id="clip0_14677_39748">
<rect width="19.8529" height="19.8529" fill="white" transform="translate(18.7969 22.8823)"/>
</clipPath>
</defs>
</svg>
