<svg width="130" height="130" viewBox="0 0 130 130" fill="none" xmlns="http://www.w3.org/2000/svg">
<circle opacity="0.3" cx="65" cy="65" r="65" fill="#F5D8AB"/>
<path d="M105.407 81.0702L74.8503 28.7501C73.8626 27.0068 72.4201 25.5547 70.6717 24.5438C68.9234 23.533 66.9326 23 64.905 23C62.8775 23 60.8867 23.533 59.1383 24.5438C57.3899 25.5547 55.9474 27.0068 54.9597 28.7501L24.5925 81.0702C23.5706 82.7669 23.0215 84.699 23.0006 86.6715C22.9797 88.6439 23.4878 90.5869 24.4736 92.3042C25.4593 94.0215 26.8879 95.4524 28.6149 96.4524C30.342 97.4523 32.3064 97.986 34.31 97.9995H95.5C97.5197 98.019 99.5083 97.5095 101.262 96.523C103.016 95.5365 104.471 94.1085 105.479 92.3856C106.488 90.6626 107.012 88.7067 107 86.7183C106.987 84.7299 106.438 82.7805 105.407 81.0702Z" fill="url(#paint0_linear_1905_101851)"/>
<path d="M62.778 79.2236C63.4358 78.817 64.2091 78.6 65.0002 78.6C66.0611 78.6 67.0785 78.9898 67.8287 79.6837C68.5788 80.3776 69.0002 81.3187 69.0002 82.3C69.0002 83.0318 68.7656 83.7471 68.3261 84.3556C67.8866 84.9641 67.2619 85.4383 66.531 85.7183C65.8001 85.9984 64.9958 86.0717 64.2199 85.9289C63.444 85.7861 62.7312 85.4338 62.1718 84.9163C61.6124 84.3988 61.2314 83.7396 61.0771 83.0218C60.9228 82.3041 61.002 81.5602 61.3047 80.8841C61.6075 80.208 62.1202 79.6301 62.778 79.2236Z" fill="white"/>
<path d="M62.1718 50.0837C62.922 49.3898 63.9394 49 65.0002 49C66.0611 49 67.0785 49.3898 67.8287 50.0837C68.5788 50.7776 69.0002 51.7187 69.0002 52.7V67.5C69.0002 68.4813 68.5788 69.4224 67.8287 70.1163C67.0785 70.8102 66.0611 71.2 65.0002 71.2C63.9394 71.2 62.922 70.8102 62.1718 70.1163C61.4217 69.4224 61.0002 68.4813 61.0002 67.5V52.7C61.0002 51.7187 61.4217 50.7776 62.1718 50.0837Z" fill="white"/>
<defs>
<linearGradient id="paint0_linear_1905_101851" x1="52.9091" y1="26.1513" x2="93.6732" y2="98.3385" gradientUnits="userSpaceOnUse">
<stop stop-color="#FF9800"/>
<stop offset="1" stop-color="#FF3D00"/>
</linearGradient>
</defs>
</svg>
